<?xml version="1.0" encoding="UTF-8"?>
<svg xmlns="http://www.w3.org/2000/svg" width="50" height="50" viewBox="0 0 50 50" fill="none">
  <mask id="mask0_3316_154" style="mask-type:alpha" maskUnits="userSpaceOnUse" x="0" y="0" width="50" height="50">
    <rect width="50" height="50" fill="#D9D9D9"></rect>
  </mask>
  <g mask="url(#mask0_3316_154)">
    <path fill-rule="evenodd" clip-rule="evenodd" d="M0 35.9528H10.7773V39.3339H7.42035V49.2898H3.35692V39.3339H0V35.9528ZM24.7353 35.9528H35.5126V39.3339H32.1559V49.2898H28.0922V39.3339H24.7353V35.9528ZM10.424 49.2898L15.0178 35.9528H20.1415L25.265 49.2898H20.6716L17.8447 40.6489L14.841 49.2898H10.424ZM35.159 49.2898L39.7528 35.9528H44.8771L50 49.2898H45.4066L42.5799 40.6489L39.5763 49.2898H35.159ZM24.5111 1.5625C32.6969 1.5625 39.7619 5.1848 42.8675 10.3499C38.1921 8.99597 32.7802 7.95311 27.1594 8.15196C26.2629 8.18375 25.5691 8.43028 25.5691 9.3251V30.8638C24.8792 30.8905 24.1887 30.891 23.4988 30.8653V9.3251C23.4988 8.42997 22.8049 8.18375 21.9084 8.15196C16.2658 7.95217 10.8335 9.00408 6.14552 10.3658C9.24583 5.19197 16.317 1.5625 24.5111 1.5625ZM44.2245 13.5801C44.4416 14.4424 44.5519 15.3308 44.5524 16.2231C44.5524 22.5807 38.9708 28.0141 31.2105 30.0382L28.921 13.788C28.7351 12.4665 28.7466 11.5673 29.8096 11.533C35.773 11.3407 39.2728 12.2782 44.2245 13.5801ZM17.8559 30.0494C10.0722 28.0344 4.47 22.5928 4.47 16.2234C4.47 15.3261 4.58167 14.4469 4.79497 13.5932C9.77202 12.2838 13.2751 11.3407 19.2583 11.5336C20.3215 11.5679 20.3327 12.4671 20.1468 13.7886L17.8559 30.0494Z" fill="#33348E"></path>
  </g>
</svg>
