<?xml version="1.0" encoding="UTF-8"?>
<svg xmlns="http://www.w3.org/2000/svg" width="50" height="50" viewBox="0 0 50 50" fill="none">
  <mask id="mask0_3316_91" style="mask-type:alpha" maskUnits="userSpaceOnUse" x="0" y="0" width="50" height="50">
    <rect width="50" height="50" fill="#D9D9D9"></rect>
  </mask>
  <g mask="url(#mask0_3316_91)">
    <mask id="mask1_3316_91" style="mask-type:alpha" maskUnits="userSpaceOnUse" x="0" y="0" width="50" height="50">
      <rect width="50" height="50" fill="#D9D9D9"></rect>
    </mask>
    <g mask="url(#mask1_3316_91)">
      <path d="M40.5904 46.4153V49.9926H41.6999V47.6108H45.738V49.9926H46.8467V46.4215L40.5904 46.4153ZM41.5763 45.2582H45.8425C46.4351 45.1364 46.8757 44.5957 47 44.0726H40.4189C40.5419 44.5958 40.9891 45.1364 41.5763 45.2582ZM37.2301 49.9949C37.7895 49.7496 38.0905 49.3255 38.2057 48.8292H33.2295L33.2326 44.0755L32.1171 44.0788V49.9949H37.2301ZM23.8218 45.2422H27.7618C28.3558 45.0637 28.8546 44.5958 28.9762 44.0772H22.7174V47.5733H27.84V48.8002L23.8218 48.8034C23.1921 48.985 22.6582 49.4222 22.3918 49.9996L22.7174 49.9934H28.9407V46.4109H23.8218V45.2422ZM14.0952 45.2534H18.36C18.9534 45.1312 19.3944 44.5909 19.518 44.0674H12.9372C13.0601 44.5909 13.5075 45.1312 14.0952 45.2534ZM14.0952 47.5916H18.36C18.9534 47.4706 19.3944 46.9299 19.518 46.406H12.9372C13.0601 46.9301 13.5075 47.4706 14.0952 47.5916ZM14.0952 49.9942H18.36C18.9534 49.8722 19.3944 49.3317 19.518 48.8085H12.9372C13.0601 49.3319 13.5075 49.8722 14.0952 49.9942ZM3 44.0817C3.12821 44.5988 3.56115 45.1272 4.15514 45.2596H5.95036L6.04194 45.297V49.981H7.16297V45.297L7.26481 45.2596H9.06162C9.66224 45.0996 10.0859 44.5988 10.2119 44.0817V44.0703H3V44.0817Z" fill="#E82127"></path>
      <path d="M25.0026 38.2657L30.6039 8.02944C35.943 8.02944 37.6271 8.59137 37.8703 10.885C37.8703 10.885 41.4519 9.60324 43.2583 6.99999C36.2091 3.86481 29.1262 3.72341 29.1262 3.72341L24.9933 8.555L25.0026 8.55439L20.8696 3.72266C20.8696 3.72266 13.7866 3.8642 6.73828 6.99938C8.54314 9.60263 12.1262 10.8844 12.1262 10.8844C12.3708 8.59061 14.0528 8.02868 19.356 8.02504L25.0026 38.2657Z" fill="#E82127"></path>
      <path d="M24.9999 2.32774C30.6982 2.28592 37.2205 3.17382 43.8975 5.96696C44.7899 4.42529 45.0193 3.74394 45.0193 3.74394C37.7204 0.972318 30.8851 0.0237927 24.9991 0C19.1134 0.0237927 12.2784 0.972469 4.98047 3.74394C4.98047 3.74394 5.30604 4.5832 6.1015 5.96696C12.7772 3.17382 19.3006 2.28592 24.9991 2.32774H24.9999Z" fill="#E82127"></path>
    </g>
  </g>
</svg>
