<svg width="30" height="30" viewBox="0 0 30 30" fill="none" xmlns="http://www.w3.org/2000/svg">
<circle cx="15" cy="15" r="15" fill="#F6F6F6"/>
<circle cx="15" cy="15" r="14.5" stroke="#EEEEEE" stroke-opacity="0.933333"/>
<path d="M19.125 9.75022C18.8267 9.75022 18.5405 9.86875 18.3295 10.0797C18.1186 10.2907 18 10.5768 18 10.8752C18 11.1736 18.1186 11.4597 18.3295 11.6707C18.5405 11.8817 18.8267 12.0002 19.125 12.0002C19.4234 12.0002 19.7095 11.8817 19.9205 11.6707C20.1315 11.4597 20.25 11.1736 20.25 10.8752C20.25 10.5768 20.1315 10.2907 19.9205 10.0797C19.7095 9.86875 19.4234 9.75022 19.125 9.75022ZM17.2501 10.8752C17.25 10.4353 17.4046 10.0094 17.6869 9.67193C17.9692 9.33451 18.3611 9.10708 18.7941 9.02944C19.2271 8.95179 19.6736 9.02888 20.0556 9.24721C20.4375 9.46554 20.7305 9.8112 20.8833 10.2237C21.0361 10.6363 21.0389 11.0894 20.8914 11.5038C20.7439 11.9183 20.4553 12.2676 20.0762 12.4908C19.6971 12.7139 19.2515 12.7967 18.8176 12.7246C18.3836 12.6524 17.9888 12.43 17.7023 12.0962L12.6639 14.4361C12.7797 14.8032 12.7797 15.1971 12.6639 15.5641L17.7023 17.9041C18.0052 17.5518 18.428 17.3246 18.8889 17.2663C19.3498 17.2081 19.8159 17.323 20.1969 17.5889C20.5779 17.8547 20.8466 18.2525 20.951 18.7052C21.0554 19.1578 20.988 19.6332 20.7619 20.039C20.5359 20.4448 20.1672 20.7523 19.7273 20.9018C19.2875 21.0512 18.8078 21.0321 18.3813 20.8481C17.9547 20.6641 17.6117 20.3282 17.4186 19.9057C17.2255 19.4832 17.1962 19.004 17.3363 18.5611L12.2979 16.2211C12.0485 16.5118 11.716 16.7191 11.3452 16.8152C10.9745 16.9112 10.5832 16.8914 10.224 16.7585C9.86479 16.6255 9.55495 16.3857 9.33612 16.0713C9.1173 15.757 9 15.3832 9 15.0001C9 14.6171 9.1173 14.2433 9.33612 13.9289C9.55495 13.6146 9.86479 13.3748 10.224 13.2418C10.5832 13.1088 10.9745 13.089 11.3452 13.1851C11.716 13.2812 12.0485 13.4885 12.2979 13.7792L17.3363 11.4392C17.279 11.2567 17.2499 11.0665 17.2501 10.8752ZM10.8752 13.8752C10.5768 13.8752 10.2907 13.9937 10.0797 14.2047C9.86871 14.4156 9.75019 14.7018 9.75019 15.0001C9.75019 15.2985 9.86871 15.5846 10.0797 15.7956C10.2907 16.0066 10.5768 16.1251 10.8752 16.1251C11.1735 16.1251 11.4597 16.0066 11.6707 15.7956C11.8816 15.5846 12.0001 15.2985 12.0001 15.0001C12.0001 14.7018 11.8816 14.4156 11.6707 14.2047C11.4597 13.9937 11.1735 13.8752 10.8752 13.8752ZM19.125 18.0001C18.8267 18.0001 18.5405 18.1186 18.3295 18.3296C18.1186 18.5406 18 18.8267 18 19.1251C18 19.4234 18.1186 19.7096 18.3295 19.9205C18.5405 20.1315 18.8267 20.25 19.125 20.25C19.4234 20.25 19.7095 20.1315 19.9205 19.9205C20.1315 19.7096 20.25 19.4234 20.25 19.1251C20.25 18.8267 20.1315 18.5406 19.9205 18.3296C19.7095 18.1186 19.4234 18.0001 19.125 18.0001Z" fill="#1D1D1D"/>
</svg>
