<svg width="13" height="13" viewBox="0 0 13 13" fill="none" xmlns="http://www.w3.org/2000/svg">
<mask id="mask0_935_1174" style="mask-type:alpha" maskUnits="userSpaceOnUse" x="0" y="0" width="13" height="13">
<rect width="13" height="13" fill="white"/>
</mask>
<g mask="url(#mask0_935_1174)">
<path d="M6.42675 3.45316H10.8879C10.9491 3.45316 11.0078 3.43176 11.0511 3.39366C11.0944 3.35557 11.1187 3.3039 11.1187 3.25003V1.82813C11.1187 1.77426 11.0944 1.72259 11.0511 1.6845C11.0078 1.6464 10.9491 1.625 10.8879 1.625H7.19528C7.15167 1.62499 7.10894 1.63587 7.07205 1.65636C7.03517 1.67685 7.00564 1.70612 6.98688 1.74078L6.21835 3.16268C6.20159 3.19365 6.19402 3.22784 6.19633 3.26208C6.19864 3.29632 6.21077 3.32948 6.23157 3.35848C6.25238 3.38748 6.28119 3.41138 6.31532 3.42793C6.34945 3.44448 6.38778 3.45316 6.42675 3.45316ZM7.34114 2.03126H10.6571V3.0469H6.79209L7.34114 2.03126Z" fill="#5E5E5E"/>
<path d="M1.49923 3.21956C1.56085 3.24028 1.6407 3.21936 1.67509 3.2027L1.87634 3.10601L2.16344 3.56955C1.79416 3.78793 1.4916 4.08293 1.28243 4.42852C1.07326 4.77412 0.963913 5.1597 0.964027 5.55127V11.5781C0.964027 12.3622 1.68871 13 2.57956 13H10.888C11.7789 13 12.5035 12.3622 12.5035 11.5781V1.42187C12.5035 0.861847 11.9859 0.406229 11.3496 0.406229H7.42615C7.03614 0.404981 6.65352 0.499924 6.32168 0.680298C5.98985 0.860671 5.72206 1.11926 5.54868 1.42675L5.17456 2.08732L4.57959 2.3778L4.30772 1.93944L4.51127 1.84174C4.56496 1.81594 4.60482 1.77244 4.62208 1.72079C4.63935 1.66914 4.63261 1.61358 4.60336 1.5663L3.82998 0.316853C3.74177 0.175448 3.5936 0.0704953 3.41779 0.0249036C3.24198 -0.0206881 3.05281 -0.00321658 2.89159 0.0735044L0.86271 1.04649C0.530372 1.20635 0.405976 1.57645 0.586223 1.87261L1.36168 3.12186C1.37621 3.1453 1.39586 3.16598 1.41951 3.18272C1.44315 3.19945 1.47032 3.2119 1.49946 3.21936L1.49923 3.21956ZM3.11176 0.430605C3.16583 0.406431 3.22835 0.401358 3.28653 0.416425C3.3447 0.431492 3.39414 0.465558 3.42471 0.511653L4.08754 1.58255L3.58096 1.82529L3.24816 1.28984C3.21805 1.24381 3.16865 1.21 3.11056 1.19564C3.05246 1.18128 2.99029 1.18752 2.93735 1.21302C2.88442 1.23852 2.84494 1.28125 2.82737 1.33206C2.8098 1.38287 2.81554 1.43771 2.84335 1.48484L3.17569 2.01948L2.5671 2.31117L2.23522 1.77714C2.20511 1.73112 2.15571 1.69731 2.09762 1.68295C2.03952 1.66859 1.97735 1.67483 1.92442 1.70033C1.87148 1.72583 1.832 1.76856 1.81443 1.81936C1.79686 1.87017 1.8026 1.92502 1.83041 1.97215L2.16183 2.50536L1.85857 2.6508L1.85742 2.65121L1.65617 2.74851L0.992414 1.67924C0.963388 1.63183 0.956728 1.57627 0.973873 1.52457C0.991019 1.47288 1.03059 1.4292 1.08404 1.40298L3.11176 0.430605ZM3.60404 3.33778L5.46098 2.41212C5.50183 2.39222 5.5346 2.36175 5.5556 2.32519L5.96156 1.60834C6.09878 1.36989 6.30815 1.16942 6.56658 1.02903C6.82501 0.888634 7.12246 0.81377 7.42615 0.812689H11.3496C11.7313 0.812689 12.042 1.0861 12.042 1.42208V11.5783C12.042 12.1383 11.5243 12.5939 10.888 12.5939H2.57956C1.94327 12.5939 1.42561 12.1383 1.42561 11.5783V5.55148C1.42541 5.19819 1.53263 4.8513 1.73615 4.5468C1.93968 4.2423 2.23208 3.99128 2.58302 3.81981C2.63629 3.7938 2.67571 3.75032 2.6927 3.69883C2.70969 3.64735 2.70287 3.59205 2.67372 3.54497L2.28161 2.91182L3.90222 2.13424L4.17755 2.57808L3.37371 2.98596C3.34744 2.99928 3.32442 3.01703 3.30594 3.03818C3.28747 3.05934 3.27392 3.08349 3.26605 3.10926C3.25819 3.13502 3.25616 3.1619 3.2601 3.18836C3.26404 3.21481 3.27386 3.24032 3.28901 3.26344C3.3317 3.32864 3.47641 3.38795 3.60427 3.33798L3.60404 3.33778Z" fill="#5E5E5E"/>
<path d="M9.50328 9.46291V6.58418L10.8204 5.42492C10.8419 5.40607 10.8589 5.38369 10.8705 5.35904C10.8821 5.3344 10.8881 5.30799 10.8881 5.28131C10.8881 5.25463 10.8821 5.22822 10.8705 5.20357C10.8589 5.17893 10.8419 5.15654 10.8204 5.1377L9.89724 4.32518C9.87583 4.3063 9.85039 4.29132 9.8224 4.2811C9.7944 4.27089 9.76438 4.26562 9.73407 4.26562C9.70376 4.26562 9.67375 4.27089 9.64575 4.2811C9.61775 4.29132 9.59232 4.3063 9.57091 4.32518L8.25378 5.48444H5.21382L3.8967 4.32518C3.87528 4.3063 3.84985 4.29132 3.82185 4.2811C3.79385 4.27089 3.76384 4.26562 3.73353 4.26562C3.70322 4.26562 3.6732 4.27089 3.6452 4.2811C3.61721 4.29132 3.59177 4.3063 3.57036 4.32518L2.6472 5.1377C2.62575 5.15654 2.60873 5.17893 2.59712 5.20357C2.58551 5.22822 2.57953 5.25463 2.57953 5.28131C2.57953 5.30799 2.58551 5.3344 2.59712 5.35904C2.60873 5.38369 2.62575 5.40607 2.6472 5.42492L3.96432 6.58418V9.46291L2.6472 10.6222C2.62575 10.641 2.60873 10.6634 2.59712 10.688C2.58551 10.7127 2.57953 10.7391 2.57953 10.7658C2.57953 10.7925 2.58551 10.8189 2.59712 10.8435C2.60873 10.8682 2.62575 10.8905 2.6472 10.9094L3.57036 11.7219C3.59177 11.7408 3.61721 11.7558 3.6452 11.766C3.6732 11.7762 3.70322 11.7815 3.73353 11.7815C3.76384 11.7815 3.79385 11.7762 3.82185 11.766C3.84985 11.7558 3.87528 11.7408 3.8967 11.7219L5.21382 10.5627H8.25378L9.57091 11.7219C9.59229 11.7408 9.61771 11.7559 9.64571 11.7661C9.67372 11.7764 9.70375 11.7816 9.73407 11.7816C9.7644 11.7816 9.79443 11.7764 9.82243 11.7661C9.85044 11.7559 9.87586 11.7408 9.89724 11.7219L10.8204 10.9094C10.8419 10.8905 10.8589 10.8682 10.8705 10.8435C10.8821 10.8189 10.8881 10.7925 10.8881 10.7658C10.8881 10.7391 10.8821 10.7127 10.8705 10.688C10.8589 10.6634 10.8419 10.641 10.8204 10.6222L9.50328 9.46291ZM9.73407 11.2911L8.5125 10.2159C8.46923 10.1778 8.41054 10.1564 8.34933 10.1564H5.11827C5.08796 10.1564 5.05794 10.1616 5.02994 10.1718C5.00194 10.182 4.9765 10.197 4.9551 10.2159L3.73353 11.2911L3.1367 10.7658L4.35828 9.69062C4.40156 9.65254 4.42588 9.60088 4.4259 9.54701V6.50008C4.42593 6.4734 4.41997 6.44698 4.40837 6.42234C4.39676 6.39769 4.37974 6.37531 4.35828 6.35647L3.1367 5.28131L3.73353 4.75602L4.9551 5.83118C4.99837 5.86927 5.05706 5.89068 5.11827 5.89069H8.34933C8.41049 5.89069 8.46934 5.86937 8.5125 5.83118L9.73407 4.75602L10.3309 5.28131L9.10932 6.35647C9.06604 6.39455 9.04172 6.44621 9.0417 6.50008V9.54701C9.0417 9.60084 9.06594 9.65264 9.10932 9.69062L10.3309 10.7658L9.73407 11.2911Z" fill="#5E5E5E"/>
<path d="M8.11856 6.5H5.34908C5.28787 6.5 5.22916 6.5214 5.18588 6.55949C5.1426 6.59759 5.11829 6.64926 5.11829 6.70313V9.3438C5.11829 9.39767 5.1426 9.44934 5.18588 9.48743C5.22916 9.52553 5.28787 9.54693 5.34908 9.54693H7.1954C7.25661 9.54693 7.31531 9.52553 7.35859 9.48743C7.40187 9.44934 7.42619 9.39767 7.42619 9.3438C7.42619 9.28993 7.40187 9.23826 7.35859 9.20017C7.31531 9.16207 7.25661 9.14067 7.1954 9.14067H5.57987V6.90626H7.88777V8.53129C7.88777 8.58516 7.91208 8.63683 7.95537 8.67492C7.99865 8.71301 8.05735 8.73441 8.11856 8.73441C8.17977 8.73441 8.23847 8.71301 8.28175 8.67492C8.32503 8.63683 8.34935 8.58516 8.34935 8.53129V6.70313C8.34935 6.64926 8.32503 6.59759 8.28175 6.55949C8.23847 6.5214 8.17977 6.5 8.11856 6.5ZM11.1188 6.5C11.0576 6.5 10.9989 6.5214 10.9556 6.55949C10.9124 6.59759 10.888 6.64926 10.888 6.70313V8.53129C10.888 8.58516 10.9124 8.63683 10.9556 8.67492C10.9989 8.71301 11.0576 8.73441 11.1188 8.73441C11.18 8.73441 11.2387 8.71301 11.282 8.67492C11.3253 8.63683 11.3496 8.58516 11.3496 8.53129V6.70313C11.3496 6.64926 11.3253 6.59759 11.282 6.55949C11.2387 6.5214 11.18 6.5 11.1188 6.5Z" fill="#5E5E5E"/>
<path d="M11.1187 9.54688C11.2462 9.54688 11.3495 9.45594 11.3495 9.34375C11.3495 9.23157 11.2462 9.14062 11.1187 9.14062C10.9913 9.14062 10.8879 9.23157 10.8879 9.34375C10.8879 9.45594 10.9913 9.54688 11.1187 9.54688Z" fill="#5E5E5E"/>
</g>
</svg>
