<?xml version="1.0" encoding="UTF-8"?>
<svg xmlns="http://www.w3.org/2000/svg" width="50" height="50" viewBox="0 0 50 50" fill="none">
  <mask id="mask0_3316_128" style="mask-type:alpha" maskUnits="userSpaceOnUse" x="0" y="0" width="50" height="50">
    <rect width="50" height="50" fill="#D9D9D9"></rect>
  </mask>
  <g mask="url(#mask0_3316_128)">
    <path d="M19.4515 10.5774C19.8229 9.31955 20.7633 9.96142 20.7633 9.96142C20.7633 9.96142 23.2005 11.8865 29.8851 16.2988C36.5698 20.7111 44.9035 14.588 44.9035 14.588L25.1103 0C16.4289 9.54513 5.31707 12.9671 5.31707 12.9671L5.34858 12.9798L30.6493 31.3825C30.2779 32.6403 29.3374 31.9987 29.3374 31.9987C29.3374 31.9987 26.9003 30.0734 20.2156 25.6608C13.531 21.2485 5.19727 27.3719 5.19727 27.3719L24.9905 41.9599C33.6719 32.4145 44.7837 28.9928 44.7837 28.9928L44.7517 28.9798L19.4515 10.5774Z" fill="#FF0016"></path>
    <path d="M5.00098 47.7504L8.04601 47.7672C8.09835 48.0643 8.01606 48.0632 8.17622 48.2183C8.42703 48.4604 8.81612 48.5155 9.14271 48.4558C9.41018 48.4071 9.82479 48.3223 9.84458 47.9779C9.8662 47.604 9.6167 47.4738 9.30366 47.4311C8.87081 47.3725 8.43406 47.3571 8.00251 47.2855C6.89071 47.0961 6.29952 47.0113 5.82604 46.6982C5.3484 46.3848 5.30725 45.7024 5.30725 45.2167C5.30725 44.8974 5.4294 44.5962 5.67369 44.3117C5.91798 44.0283 6.28545 43.8052 6.77585 43.6423C7.26652 43.4799 7.93871 43.3994 8.7932 43.3994C9.8412 43.3994 10.641 43.5466 11.1908 43.8411C11.7413 44.1356 12.0687 44.7923 12.1732 45.4339H9.58415C9.60342 45.3958 9.53336 45.224 9.52216 45.181C9.42294 44.8085 9.07629 44.6999 8.74424 44.6237C8.47208 44.5613 8.16112 44.5559 7.91579 44.7115C7.76656 44.8066 7.65066 44.9068 7.65066 45.043C7.65066 45.1416 7.71213 45.2305 7.83557 45.3096C7.95563 45.3912 8.23925 45.4677 8.68694 45.5379C9.7951 45.7194 10.5887 45.9021 11.0684 46.0866C11.5476 46.2724 11.8963 46.5012 12.1148 46.7749C12.3328 47.0486 12.4422 47.3549 12.4422 47.6937C12.4422 48.0919 12.2966 48.4587 12.0054 48.7943C11.7148 49.1298 11.3082 49.3853 10.7861 49.5588C10.2636 49.7325 9.6055 49.8189 8.81117 49.8189C7.41653 49.8189 6.45005 49.6158 5.91329 49.2095C5.37575 48.8037 5.07182 48.3777 5.00098 47.7504ZM17.3558 43.5161H19.6063V47.9049C19.6063 48.8056 19.0669 49.4434 17.9879 49.8203C17.4887 49.9921 16.8902 49.9986 16.2125 49.9986C15.6049 49.9986 15.0598 50.0102 14.5556 49.874C13.368 49.3818 12.7745 48.7254 12.7745 47.9049V43.5161H15.0408V47.2747C15.0408 47.959 15.1283 48.4682 16.2128 48.4682C17.3191 48.4682 17.3413 47.9368 17.3413 47.2525L17.3558 43.5161ZM32.0703 43.5161H34.321V47.9049C34.321 48.8056 33.7816 49.4434 32.7026 49.8203C32.2036 49.9921 31.6049 49.9986 30.9272 49.9986C30.3196 49.9986 29.7743 50.0102 29.2703 49.874C28.0825 49.3818 27.4889 48.7254 27.4889 47.9049V43.5161H29.7553V47.2747C29.7553 47.959 29.843 48.4682 30.9272 48.4682C32.0336 48.4682 32.0557 47.9368 32.0557 47.2525L32.0703 43.5161ZM20.0693 43.5615H27.0402V44.9106L23.635 48.0851H27.0405V49.8522H20.0693V48.3331L23.3962 45.2037H20.0756L20.0693 43.5615ZM34.8783 49.8411V43.5507H37.1126L37.1121 45.8791L39.5219 43.5507H42.3182L39.1094 46.5993L42.4518 49.8411H39.4349L37.1342 47.5902L37.1561 49.8411H34.8783ZM45.001 43.5499V49.8411H42.7711V43.5507H45.001V43.5499Z" fill="#015CD0"></path>
  </g>
</svg>
