<?xml version="1.0" encoding="UTF-8"?>
<svg xmlns="http://www.w3.org/2000/svg" width="50" height="50" viewBox="0 0 50 50" fill="none">
  <mask id="mask0_3316_134" style="mask-type:alpha" maskUnits="userSpaceOnUse" x="0" y="0" width="50" height="50">
    <rect width="50" height="50" fill="#D9D9D9"></rect>
  </mask>
  <g mask="url(#mask0_3316_134)">
    <path d="M24.9406 42.2526C24.9331 39.6278 26.9155 37.5104 29.3916 37.5059C31.8071 37.51 33.7911 39.6275 33.8398 42.2526C33.7917 44.8479 31.8076 46.9654 29.3916 47.0021C26.9155 46.9654 24.9332 44.8479 24.9406 42.2526ZM29.3918 45.2524C30.7285 45.2304 31.8351 43.8901 31.8489 42.2526C31.8351 40.5836 30.7285 39.2433 29.3918 39.2527C27.9973 39.2429 26.888 40.5832 26.9321 42.2526C26.888 43.8899 27.9973 45.2302 29.3918 45.2524ZM38.8745 39.5029V46.7521H37.0023V39.5029H34.3083V37.881H41.4513V39.5029H38.8745ZM43.6747 44.7502L42.9737 46.7523H40.7505L44.2624 37.881H46.6031L50 46.7523H47.7766L47.0741 44.7502H43.6747ZM45.4338 43.2526H46.6031L45.4338 40.0026L44.2624 43.2526H45.4338ZM4.44905 39.5029V46.7521H2.57563V39.5029H0V37.881H7.02591V39.5029H4.44905ZM7.4944 42.2526C7.4981 39.6278 9.47948 37.5104 11.9419 37.5059C14.3725 37.51 16.3569 39.6275 16.3927 42.2526C16.3569 44.8479 14.3725 46.9654 11.9419 47.0021C9.47948 46.9654 7.49793 44.8479 7.4944 42.2526ZM11.9419 45.2524C13.2944 45.2304 14.4002 43.8901 14.4014 42.2526C14.4 40.5836 13.2944 39.2433 11.9419 39.2527C10.5611 39.2429 9.45337 40.5832 9.48565 42.2526C9.45337 43.8899 10.5611 45.2302 11.9419 45.2524ZM20.6082 46.7521H21.5439V43.3773L24.8235 37.881H22.7166L20.6082 41.6277L18.6169 37.881H16.3929L19.6724 43.3773V46.7521H20.6082Z" fill="#AB002F"></path>
    <path d="M1.50781 18.3523C1.50781 26.8169 11.8223 33.7038 24.5001 33.7038C37.1776 33.7038 47.4923 26.8169 47.4923 18.3523C47.4922 9.88697 37.1776 3.00098 24.4999 3.00098C11.8221 3.00098 1.50781 9.88697 1.50781 18.3523ZM2.21337 18.3523C2.21337 10.3037 12.2109 3.75517 24.5001 3.75517C36.7889 3.75517 46.7868 10.3037 46.7868 18.3523C46.7868 26.4026 36.7889 32.9509 24.5001 32.9509C12.2109 32.9508 2.21337 26.4028 2.21337 18.3523Z" fill="black"></path>
    <path d="M22.3272 5.79234C16.9459 6.143 13.0373 7.66493 12.3711 9.67003C12.3033 9.87207 12.2683 10.085 12.2678 10.2996C12.2678 10.6379 12.3574 10.9761 12.5352 11.2994C13.282 12.6573 15.6003 13.777 18.8993 14.3776L19.2485 14.4386L19.3071 14.0663C19.8486 10.5415 21.0373 7.76977 22.5696 6.46109L23.4377 5.71875L22.3272 5.79234ZM13.1442 10.9198C13.0292 10.7111 12.9726 10.5052 12.9726 10.3023C12.9726 10.1743 12.9932 10.0493 13.0359 9.92206C13.5445 8.39033 16.999 7.05247 21.4121 6.62088C20.1532 8.14038 19.1852 10.5889 18.6802 13.5637C15.8125 12.9976 13.7505 12.0226 13.1442 10.9198ZM21.3433 14.2916L21.2743 14.7011L21.6636 14.7327C22.5868 14.8063 23.5413 14.8461 24.4989 14.8461C25.4574 14.8461 26.4124 14.8063 27.3358 14.7327L27.7243 14.7011L27.6552 14.2916C27.1244 11.111 25.9437 9.21115 24.4994 9.21115C23.0541 9.21115 21.8739 11.111 21.3433 14.2916ZM24.4996 9.96403C25.487 9.96403 26.3986 11.5419 26.8789 14.0049C26.098 14.0593 25.3027 14.0932 24.4989 14.0932C23.6961 14.0932 22.9005 14.0593 22.1205 14.0049C22.5994 11.5419 23.5123 9.96403 24.4996 9.96403ZM26.4289 6.46146C27.9607 7.77015 29.1506 10.5422 29.6921 14.0666L29.75 14.4389L30.0987 14.378C33.3991 13.7773 35.7186 12.6573 36.4628 11.2996C36.7523 10.7779 36.8073 10.2144 36.6283 9.67059C35.9622 7.66569 32.0534 6.14375 26.6725 5.79272L25.5634 5.71913L26.4289 6.46146ZM27.5885 6.62088C32.0003 7.05247 35.4547 8.39278 35.9619 9.92206C36.006 10.0493 36.0266 10.1743 36.0266 10.3023C36.0266 10.5052 35.9687 10.7111 35.8564 10.9198C35.248 12.0224 33.1853 12.9976 30.319 13.5637C29.814 10.5891 28.8474 8.14056 27.5885 6.62088ZM8.96611 11.1477C6.54764 13.3094 5.26953 15.8775 5.26953 18.5756C5.26953 24.9227 12.5226 30.2877 22.1399 31.0523L23.2141 31.1383L22.3962 30.3927C20.2892 28.4693 18.9807 23.9058 18.9807 18.4823L19.0028 17.2009L18.7079 17.1369C13.6492 16.1694 10.0504 13.8997 9.53796 11.358L9.41537 10.7478L8.96611 11.1477ZM5.97579 18.5756C5.97579 16.262 7.03342 14.0416 9.0192 12.1131C9.94436 14.6814 13.4012 16.8208 18.2875 17.8163C18.2814 18.1103 18.2759 18.4823 18.2759 18.4823C18.2759 23.5111 19.3942 27.8541 21.2387 30.1972C12.4757 29.1994 5.97579 24.3153 5.97579 18.5756ZM21.056 17.8973L21.0538 18.0339C21.0538 23.0752 22.5352 26.8785 24.4996 26.8785C26.4633 26.8785 27.9448 23.0752 27.9448 18.0339L27.9401 17.49L27.5612 17.5246C26.5621 17.618 25.5334 17.6643 24.4999 17.6643C23.4665 17.6643 22.4364 17.618 21.44 17.5246L21.0597 17.4879L21.056 17.8973ZM27.235 18.3014C27.1819 22.992 25.7971 26.1262 24.4996 26.1262C23.2008 26.1262 21.8158 22.992 21.7642 18.3014C22.6613 18.372 23.5776 18.416 24.4996 18.416C25.423 18.416 26.3367 18.372 27.235 18.3014ZM39.46 11.358C38.9481 13.8997 35.3486 16.1692 30.2915 17.1369L29.9952 17.1956L30.0186 18.4821C30.0186 23.9056 28.7095 28.4693 26.6032 30.3926L25.7853 31.1381L26.8581 31.0521C36.4762 30.2875 43.7295 24.9225 43.7295 18.5754C43.7295 15.8773 42.45 13.3092 40.0315 11.1475L39.5836 10.7476L39.46 11.358ZM39.9788 12.1131C41.966 14.0416 43.0243 16.262 43.0243 18.5756C43.0243 24.3153 36.5247 29.1994 27.7608 30.1972C29.6053 27.8541 30.7236 23.5111 30.7236 18.4823C30.7236 18.4823 30.7168 18.1101 30.712 17.8163C35.5967 16.8208 39.0534 14.6812 39.9788 12.1131Z" fill="black"></path>
    <path d="M39.7112 9.42015C39.7437 9.51577 39.7733 9.61327 39.7966 9.71133C39.9296 10.2752 39.9021 10.829 39.7297 11.3686C42.0242 13.3876 43.3768 15.8778 43.3768 18.5759C43.3768 25.3104 34.9253 30.771 24.5007 30.771C14.0754 30.771 5.62465 25.3104 5.62465 18.5759C5.62465 15.88 6.97861 13.3878 9.27025 11.3686C9.09933 10.829 9.07181 10.2752 9.20481 9.71133C9.23233 9.60433 9.269 9.50024 9.31435 9.40039C6.18345 11.7806 4.28516 14.9 4.28516 18.3163C4.28516 25.7758 13.3353 31.8223 24.5005 31.8223C35.6643 31.8223 44.7159 25.7758 44.7159 18.3163C44.7162 14.9071 42.8255 11.7949 39.7112 9.42015Z" fill="url(#paint0_linear_3316_134)"></path>
    <path d="M27.3081 14.3559C26.4172 14.4273 25.4781 14.4662 24.4989 14.4662C23.5205 14.4662 22.5821 14.4273 21.6912 14.3559H21.6884L21.1061 14.8073C22.1803 14.9072 23.3147 14.9639 24.4995 14.9639C25.6844 14.9639 26.8186 14.9072 27.8935 14.8073L27.3081 14.3559ZM37.6341 9.62391C36.9244 7.12116 31.0747 5.2832 24.4996 5.2832C17.9256 5.2832 12.0761 7.12154 11.3664 9.62391C10.7505 11.795 14.1128 13.8044 19.4175 14.6014L18.9566 14.0026C14.6654 13.2234 12.1149 11.5618 12.7033 9.79519C13.4164 7.65024 18.5963 6.09706 24.4991 6.09706C30.4018 6.09706 35.5828 7.65062 36.2953 9.79519C36.883 11.562 34.3337 13.2236 30.0414 14.0026L29.5821 14.6014C34.8849 13.8044 38.2495 11.795 37.6341 9.62391Z" fill="url(#paint1_linear_3316_134)"></path>
    <path d="M21.6987 14.3563C22.1914 11.4351 23.2601 9.60956 24.4996 9.60956C25.7405 9.60956 26.8083 11.4351 27.3017 14.3563H27.3116L27.8878 14.8025C27.4014 10.9448 26.0689 8.47949 24.5005 8.47949C22.931 8.47949 21.5991 10.9448 21.1133 14.8025L21.6894 14.3563H21.6987Z" fill="url(#paint2_linear_3316_134)"></path>
    <path d="M28.0625 16.9902L27.5912 17.8997C27.5912 17.966 27.594 18.0341 27.594 18.1032C27.594 22.9453 26.2064 26.6167 24.4998 26.6167C22.7917 26.6167 21.4068 22.9449 21.4068 18.1032C21.4068 18.0268 21.4082 17.9509 21.4096 17.8777L20.9376 16.9902C20.9237 17.3593 20.9169 17.7287 20.917 18.0981C20.917 23.5879 22.5211 27.7464 24.5005 27.7464C26.4799 27.7464 28.0854 23.5879 28.0854 18.0981C28.0847 17.7287 28.0771 17.3593 28.0625 16.9902Z" fill="url(#paint3_linear_3316_134)"></path>
    <path d="M19.4255 14.604C20.1035 9.24201 22.1189 5.2832 24.5002 5.2832C21.9473 5.2832 19.7714 8.79048 18.9639 14.0136L19.4186 14.604H19.4255Z" fill="url(#paint4_linear_3316_134)"></path>
    <path d="M29.5754 14.604H29.5802L30.0349 14.0136C29.2288 8.79048 27.0515 5.2832 24.5 5.2832C26.8812 5.28358 28.8981 9.24201 29.5754 14.604Z" fill="url(#paint5_linear_3316_134)"></path>
    <path d="M30.3517 17.5031L29.773 16.7656H29.7682C29.8007 17.3516 29.8192 17.9471 29.8192 18.552C29.8192 25.8801 27.4372 31.8205 24.5 31.8205C27.7934 31.8205 30.3704 26.311 30.3704 18.552C30.3704 18.197 30.3635 17.8488 30.3517 17.5031Z" fill="url(#paint6_linear_3316_134)"></path>
    <path d="M19.1819 18.552C19.1819 17.9471 19.2004 17.3516 19.2322 16.7656H19.2283L18.6481 17.5008C18.6358 17.8511 18.6294 18.2015 18.6289 18.552C18.6289 26.311 21.2079 31.8205 24.5 31.8205C21.5638 31.8205 19.1819 25.8799 19.1819 18.552Z" fill="url(#paint7_linear_3316_134)"></path>
    <path d="M39.729 11.3686C40.6061 12.1407 41.3461 12.9831 41.9248 13.8779C41.7245 12.4549 41.1939 11.1078 40.3814 9.95921C40.1622 9.7733 39.9383 9.59368 39.7101 9.42053C39.7427 9.51615 39.7724 9.61364 39.7953 9.7117C39.9288 10.2754 39.9013 10.829 39.729 11.3686ZM9.26965 11.3686C9.09873 10.829 9.07121 10.2752 9.20421 9.71133C9.23173 9.60433 9.2684 9.50024 9.31374 9.40039C9.07846 9.58156 8.84669 9.76787 8.6186 9.95921C7.8073 11.1085 7.27688 12.4552 7.0752 13.8779C7.65393 12.9831 8.39247 12.1405 9.26965 11.3686Z" fill="#2D2F34"></path>
    <path d="M1.86035 18.3532C1.86035 10.084 11.9956 3.37891 24.4998 3.37891C37.0023 3.37891 47.1377 10.084 47.1377 18.3532C47.1377 26.6241 37.0023 33.3268 24.4998 33.3268C11.9956 33.3266 1.86035 26.6243 1.86035 18.3532ZM24.4997 31.8224C35.6636 31.8224 44.715 25.7758 44.715 18.3163C44.715 10.8561 35.6636 4.80749 24.4997 4.80749C13.3343 4.80749 4.28358 10.8565 4.28358 18.3163C4.28358 25.7758 13.3344 31.8224 24.4997 31.8224Z" fill="url(#paint8_linear_3316_134)"></path>
    <path d="M19.1816 18.5517C19.1816 11.3006 21.5636 5.2832 24.4994 5.2832C27.4366 5.2832 29.8188 11.3006 29.8188 18.5517C29.8188 25.8798 27.4366 31.8202 24.4994 31.8202C21.5622 31.8202 19.1816 25.8796 19.1816 18.5517ZM24.4994 27.7441C26.479 27.7441 28.0845 23.5856 28.0845 18.0981C28.0845 12.4032 26.4788 8.47935 24.4994 8.47935C22.52 8.47935 20.9159 12.4032 20.9159 18.0981C20.9159 23.5856 22.52 27.7441 24.4994 27.7441Z" fill="url(#paint9_linear_3316_134)"></path>
    <path d="M9.20461 9.71114C9.78811 7.24603 16.8447 3.6582 24.5003 3.6582C32.1552 3.6582 38.9695 6.22175 39.7962 9.71114C40.7216 13.6223 33.9209 17.162 24.5003 17.162C15.0782 17.162 8.27787 13.6225 9.20461 9.71114ZM24.5003 5.28517C17.9263 5.28517 12.0768 7.1235 11.3671 9.62587C10.572 12.4294 16.4106 14.9658 24.5003 14.9658C32.5916 14.9658 38.4292 12.429 37.6348 9.62587C36.9251 7.12313 31.0757 5.28517 24.5003 5.28517Z" fill="url(#paint10_linear_3316_134)"></path>
    <path d="M20.9296 16.9805L20.9336 16.9835L21.4194 17.8973C22.4081 17.9875 23.4362 18.039 24.4993 18.039C25.5674 18.039 26.598 17.9876 27.5932 17.895L28.0659 16.9831L28.0687 16.9801C26.9319 17.0955 25.7399 17.1595 24.4997 17.1595C23.3077 17.1602 22.1163 17.1005 20.9296 16.9805ZM39.8751 10.5547C39.7538 13.3512 35.7252 15.829 29.7704 16.7627L29.7725 16.765L30.3533 17.5056C36.18 16.388 40.0131 13.6426 39.8751 10.5547ZM9.12371 10.5547C8.98595 13.6456 12.8187 16.3878 18.6443 17.5056L19.2265 16.765L19.228 16.7627C13.272 15.8291 9.2463 13.3514 9.12371 10.5547Z" fill="url(#paint11_linear_3316_134)"></path>
  </g>
  <defs>
    <linearGradient id="paint0_linear_3316_134" x1="24.5005" y1="30.154" x2="24.5005" y2="13.091" gradientUnits="userSpaceOnUse">
      <stop stop-color="#F0F3F5"></stop>
      <stop offset="0.056" stop-color="#E2E5E8"></stop>
      <stop offset="0.138" stop-color="#D4D8DD"></stop>
      <stop offset="0.242" stop-color="#CCD0D6"></stop>
      <stop offset="0.44" stop-color="#CACED4"></stop>
      <stop offset="0.568" stop-color="#B3B7BD"></stop>
      <stop offset="0.835" stop-color="#797C83"></stop>
      <stop offset="1" stop-color="#52545C"></stop>
    </linearGradient>
    <linearGradient id="paint1_linear_3316_134" x1="24.5002" y1="17.151" x2="24.5002" y2="7.9049" gradientUnits="userSpaceOnUse">
      <stop stop-color="#F0F3F5"></stop>
      <stop offset="0.056" stop-color="#E2E5E8"></stop>
      <stop offset="0.138" stop-color="#D4D8DD"></stop>
      <stop offset="0.242" stop-color="#CCD0D6"></stop>
      <stop offset="0.44" stop-color="#CACED4"></stop>
      <stop offset="0.568" stop-color="#B3B7BD"></stop>
      <stop offset="0.835" stop-color="#797C83"></stop>
      <stop offset="1" stop-color="#52545C"></stop>
    </linearGradient>
    <linearGradient id="paint2_linear_3316_134" x1="27.377" y1="15.4519" x2="21.68" y2="10.972" gradientUnits="userSpaceOnUse">
      <stop stop-color="#F0F3F5"></stop>
      <stop offset="0.056" stop-color="#E2E5E8"></stop>
      <stop offset="0.138" stop-color="#D4D8DD"></stop>
      <stop offset="0.242" stop-color="#CCD0D6"></stop>
      <stop offset="0.44" stop-color="#CACED4"></stop>
      <stop offset="0.568" stop-color="#B3B7BD"></stop>
      <stop offset="0.835" stop-color="#797C83"></stop>
      <stop offset="1" stop-color="#52545C"></stop>
    </linearGradient>
    <linearGradient id="paint3_linear_3316_134" x1="27.9274" y1="23.5128" x2="19.7904" y2="19.1102" gradientUnits="userSpaceOnUse">
      <stop stop-color="#F0F3F5"></stop>
      <stop offset="0.056" stop-color="#E2E5E8"></stop>
      <stop offset="0.138" stop-color="#D4D8DD"></stop>
      <stop offset="0.242" stop-color="#CCD0D6"></stop>
      <stop offset="0.44" stop-color="#CACED4"></stop>
      <stop offset="0.568" stop-color="#B3B7BD"></stop>
      <stop offset="0.835" stop-color="#797C83"></stop>
      <stop offset="1" stop-color="#52545C"></stop>
    </linearGradient>
    <linearGradient id="paint4_linear_3316_134" x1="21.7321" y1="3.37579" x2="21.7321" y2="18.0411" gradientUnits="userSpaceOnUse">
      <stop stop-color="#F0F3F5"></stop>
      <stop offset="0.056" stop-color="#E2E5E8"></stop>
      <stop offset="0.138" stop-color="#D4D8DD"></stop>
      <stop offset="0.242" stop-color="#CCD0D6"></stop>
      <stop offset="0.44" stop-color="#CACED4"></stop>
      <stop offset="0.568" stop-color="#B3B7BD"></stop>
      <stop offset="0.835" stop-color="#797C83"></stop>
      <stop offset="1" stop-color="#52545C"></stop>
    </linearGradient>
    <linearGradient id="paint5_linear_3316_134" x1="27.2675" y1="3.37579" x2="27.2675" y2="18.0411" gradientUnits="userSpaceOnUse">
      <stop stop-color="#F0F3F5"></stop>
      <stop offset="0.056" stop-color="#E2E5E8"></stop>
      <stop offset="0.138" stop-color="#D4D8DD"></stop>
      <stop offset="0.242" stop-color="#CCD0D6"></stop>
      <stop offset="0.44" stop-color="#CACED4"></stop>
      <stop offset="0.568" stop-color="#B3B7BD"></stop>
      <stop offset="0.835" stop-color="#797C83"></stop>
      <stop offset="1" stop-color="#52545C"></stop>
    </linearGradient>
    <linearGradient id="paint6_linear_3316_134" x1="27.4351" y1="3.25263" x2="27.4351" y2="27.7275" gradientUnits="userSpaceOnUse">
      <stop stop-color="#F0F3F5"></stop>
      <stop offset="0.056" stop-color="#E2E5E8"></stop>
      <stop offset="0.138" stop-color="#D4D8DD"></stop>
      <stop offset="0.242" stop-color="#CCD0D6"></stop>
      <stop offset="0.44" stop-color="#CACED4"></stop>
      <stop offset="0.568" stop-color="#B3B7BD"></stop>
      <stop offset="0.835" stop-color="#797C83"></stop>
      <stop offset="1" stop-color="#52545C"></stop>
    </linearGradient>
    <linearGradient id="paint7_linear_3316_134" x1="21.5644" y1="3.25245" x2="21.5644" y2="27.7273" gradientUnits="userSpaceOnUse">
      <stop stop-color="#F0F3F5"></stop>
      <stop offset="0.056" stop-color="#E2E5E8"></stop>
      <stop offset="0.138" stop-color="#D4D8DD"></stop>
      <stop offset="0.242" stop-color="#CCD0D6"></stop>
      <stop offset="0.44" stop-color="#CACED4"></stop>
      <stop offset="0.568" stop-color="#B3B7BD"></stop>
      <stop offset="0.835" stop-color="#797C83"></stop>
      <stop offset="1" stop-color="#52545C"></stop>
    </linearGradient>
    <linearGradient id="paint8_linear_3316_134" x1="24.499" y1="3.37891" x2="24.499" y2="33.3268" gradientUnits="userSpaceOnUse">
      <stop stop-color="#F0F3F5"></stop>
      <stop offset="0.253" stop-color="#EDF0F3"></stop>
      <stop offset="0.406" stop-color="#E5E8EA"></stop>
      <stop offset="0.531" stop-color="#D7DADC"></stop>
      <stop offset="0.642" stop-color="#C3C5C9"></stop>
      <stop offset="0.744" stop-color="#A9ABAF"></stop>
      <stop offset="0.839" stop-color="#888B90"></stop>
      <stop offset="0.926" stop-color="#63656B"></stop>
      <stop offset="1" stop-color="#3D3F46"></stop>
    </linearGradient>
    <linearGradient id="paint9_linear_3316_134" x1="24.5001" y1="3.37523" x2="24.5001" y2="33.325" gradientUnits="userSpaceOnUse">
      <stop stop-color="#F0F3F5"></stop>
      <stop offset="0.253" stop-color="#EDF0F3"></stop>
      <stop offset="0.406" stop-color="#E5E8EA"></stop>
      <stop offset="0.531" stop-color="#D7DADC"></stop>
      <stop offset="0.642" stop-color="#C3C5C9"></stop>
      <stop offset="0.744" stop-color="#A9ABAF"></stop>
      <stop offset="0.839" stop-color="#888B90"></stop>
      <stop offset="0.926" stop-color="#63656B"></stop>
      <stop offset="1" stop-color="#3D3F46"></stop>
    </linearGradient>
    <linearGradient id="paint10_linear_3316_134" x1="24.5003" y1="3.38039" x2="24.5003" y2="33.3294" gradientUnits="userSpaceOnUse">
      <stop stop-color="#F0F3F5"></stop>
      <stop offset="0.253" stop-color="#EDF0F3"></stop>
      <stop offset="0.406" stop-color="#E5E8EA"></stop>
      <stop offset="0.531" stop-color="#D7DADC"></stop>
      <stop offset="0.642" stop-color="#C3C5C9"></stop>
      <stop offset="0.744" stop-color="#A9ABAF"></stop>
      <stop offset="0.839" stop-color="#888B90"></stop>
      <stop offset="0.926" stop-color="#63656B"></stop>
      <stop offset="1" stop-color="#3D3F46"></stop>
    </linearGradient>
    <linearGradient id="paint11_linear_3316_134" x1="24.4995" y1="9.58781" x2="24.4995" y2="18.1232" gradientUnits="userSpaceOnUse">
      <stop stop-color="#CACED4"></stop>
      <stop offset="1" stop-color="#52545C"></stop>
    </linearGradient>
  </defs>
</svg>
